<?xml version="1.0" encoding="utf-8"?>
<svg xmlns="http://www.w3.org/2000/svg" xmlns:xlink="http://www.w3.org/1999/xlink" width="450" height="300" viewBox="0 0 1800 1200">
<defs>
  <clipPath id="clip360">
    <rect x="0" y="0" width="1800" height="1200"/>
  </clipPath>
</defs>
<path clip-path="url(#clip360)" d="
M0 1200 L1800 1200 L1800 0 L0 0  Z
  " fill="#ffffff" fill-rule="evenodd" fill-opacity="1"/>
<defs>
  <clipPath id="clip361">
    <rect x="360" y="0" width="1261" height="1200"/>
  </clipPath>
</defs>
<path clip-path="url(#clip360)" d="
M213.866 1027.18 L1752.76 1027.18 L1752.76 47.2441 L213.866 47.2441  Z
  " fill="#ffffff" fill-rule="evenodd" fill-opacity="1"/>
<defs>
  <clipPath id="clip362">
    <rect x="213" y="47" width="1540" height="981"/>
  </clipPath>
</defs>
<polyline clip-path="url(#clip362)" style="stroke:#000000; stroke-linecap:butt; stroke-linejoin:round; stroke-width:2; stroke-opacity:0.1; fill:none" points="
  450.991,1027.18 450.991,47.2441 
  "/>
<polyline clip-path="url(#clip362)" style="stroke:#000000; stroke-linecap:butt; stroke-linejoin:round; stroke-width:2; stroke-opacity:0.1; fill:none" points="
  741.347,1027.18 741.347,47.2441 
  "/>
<polyline clip-path="url(#clip362)" style="stroke:#000000; stroke-linecap:butt; stroke-linejoin:round; stroke-width:2; stroke-opacity:0.1; fill:none" points="
  1031.7,1027.18 1031.7,47.2441 
  "/>
<polyline clip-path="url(#clip362)" style="stroke:#000000; stroke-linecap:butt; stroke-linejoin:round; stroke-width:2; stroke-opacity:0.1; fill:none" points="
  1322.06,1027.18 1322.06,47.2441 
  "/>
<polyline clip-path="url(#clip362)" style="stroke:#000000; stroke-linecap:butt; stroke-linejoin:round; stroke-width:2; stroke-opacity:0.1; fill:none" points="
  1612.42,1027.18 1612.42,47.2441 
  "/>
<polyline clip-path="url(#clip360)" style="stroke:#000000; stroke-linecap:butt; stroke-linejoin:round; stroke-width:4; stroke-opacity:1; fill:none" points="
  213.866,1027.18 1752.76,1027.18 
  "/>
<polyline clip-path="url(#clip360)" style="stroke:#000000; stroke-linecap:butt; stroke-linejoin:round; stroke-width:4; stroke-opacity:1; fill:none" points="
  450.991,1027.18 450.991,1008.28 
  "/>
<polyline clip-path="url(#clip360)" style="stroke:#000000; stroke-linecap:butt; stroke-linejoin:round; stroke-width:4; stroke-opacity:1; fill:none" points="
  741.347,1027.18 741.347,1008.28 
  "/>
<polyline clip-path="url(#clip360)" style="stroke:#000000; stroke-linecap:butt; stroke-linejoin:round; stroke-width:4; stroke-opacity:1; fill:none" points="
  1031.7,1027.18 1031.7,1008.28 
  "/>
<polyline clip-path="url(#clip360)" style="stroke:#000000; stroke-linecap:butt; stroke-linejoin:round; stroke-width:4; stroke-opacity:1; fill:none" points="
  1322.06,1027.18 1322.06,1008.28 
  "/>
<polyline clip-path="url(#clip360)" style="stroke:#000000; stroke-linecap:butt; stroke-linejoin:round; stroke-width:4; stroke-opacity:1; fill:none" points="
  1612.42,1027.18 1612.42,1008.28 
  "/>
<path clip-path="url(#clip360)" d="M455.238 1066.15 Q458.595 1066.86 460.47 1069.13 Q462.368 1071.4 462.368 1074.73 Q462.368 1079.85 458.85 1082.65 Q455.331 1085.45 448.85 1085.45 Q446.674 1085.45 444.359 1085.01 Q442.067 1084.59 439.614 1083.74 L439.614 1079.22 Q441.558 1080.36 443.873 1080.94 Q446.188 1081.52 448.711 1081.52 Q453.109 1081.52 455.4 1079.78 Q457.715 1078.04 457.715 1074.73 Q457.715 1071.68 455.563 1069.97 Q453.433 1068.23 449.613 1068.23 L445.586 1068.23 L445.586 1064.39 L449.799 1064.39 Q453.248 1064.39 455.076 1063.02 Q456.905 1061.63 456.905 1059.04 Q456.905 1056.38 455.007 1054.97 Q453.132 1053.53 449.613 1053.53 Q447.692 1053.53 445.493 1053.95 Q443.294 1054.36 440.655 1055.24 L440.655 1051.08 Q443.317 1050.34 445.632 1049.97 Q447.97 1049.59 450.03 1049.59 Q455.354 1049.59 458.456 1052.03 Q461.558 1054.43 461.558 1058.55 Q461.558 1061.42 459.914 1063.41 Q458.271 1065.38 455.238 1066.15 Z" fill="#000000" fill-rule="evenodd" fill-opacity="1" /><path clip-path="url(#clip360)" d="M741.752 1065.64 Q738.604 1065.64 736.752 1067.79 Q734.924 1069.94 734.924 1073.69 Q734.924 1077.42 736.752 1079.59 Q738.604 1081.75 741.752 1081.75 Q744.901 1081.75 746.729 1079.59 Q748.581 1077.42 748.581 1073.69 Q748.581 1069.94 746.729 1067.79 Q744.901 1065.64 741.752 1065.64 M751.035 1050.98 L751.035 1055.24 Q749.276 1054.41 747.47 1053.97 Q745.688 1053.53 743.928 1053.53 Q739.299 1053.53 736.845 1056.65 Q734.414 1059.78 734.067 1066.1 Q735.433 1064.09 737.493 1063.02 Q739.553 1061.93 742.03 1061.93 Q747.238 1061.93 750.248 1065.1 Q753.28 1068.25 753.28 1073.69 Q753.28 1079.02 750.132 1082.23 Q746.984 1085.45 741.752 1085.45 Q735.757 1085.45 732.586 1080.87 Q729.414 1076.26 729.414 1067.53 Q729.414 1059.34 733.303 1054.48 Q737.192 1049.59 743.743 1049.59 Q745.502 1049.59 747.285 1049.94 Q749.09 1050.29 751.035 1050.98 Z" fill="#000000" fill-rule="evenodd" fill-opacity="1" /><path clip-path="url(#clip360)" d="M1022 1084.06 L1022 1079.8 Q1023.76 1080.64 1025.57 1081.08 Q1027.38 1081.52 1029.11 1081.52 Q1033.74 1081.52 1036.17 1078.41 Q1038.63 1075.29 1038.97 1068.95 Q1037.63 1070.94 1035.57 1072 Q1033.51 1073.07 1031.01 1073.07 Q1025.82 1073.07 1022.79 1069.94 Q1019.78 1066.79 1019.78 1061.35 Q1019.78 1056.03 1022.93 1052.81 Q1026.08 1049.59 1031.31 1049.59 Q1037.31 1049.59 1040.45 1054.2 Q1043.63 1058.78 1043.63 1067.53 Q1043.63 1075.71 1039.74 1080.59 Q1035.87 1085.45 1029.32 1085.45 Q1027.56 1085.45 1025.75 1085.1 Q1023.95 1084.76 1022 1084.06 M1031.31 1069.41 Q1034.46 1069.41 1036.29 1067.26 Q1038.14 1065.1 1038.14 1061.35 Q1038.14 1057.63 1036.29 1055.47 Q1034.46 1053.3 1031.31 1053.3 Q1028.16 1053.3 1026.31 1055.47 Q1024.48 1057.63 1024.48 1061.35 Q1024.48 1065.1 1026.31 1067.26 Q1028.16 1069.41 1031.31 1069.41 Z" fill="#000000" fill-rule="evenodd" fill-opacity="1" /><path clip-path="url(#clip360)" d="M1297.55 1080.84 L1305.19 1080.84 L1305.19 1054.48 L1296.88 1056.15 L1296.88 1051.89 L1305.14 1050.22 L1309.82 1050.22 L1309.82 1080.84 L1317.45 1080.84 L1317.45 1084.78 L1297.55 1084.78 L1297.55 1080.84 Z" fill="#000000" fill-rule="evenodd" fill-opacity="1" /><path clip-path="url(#clip360)" d="M1330.93 1080.84 L1347.25 1080.84 L1347.25 1084.78 L1325.3 1084.78 L1325.3 1080.84 Q1327.96 1078.09 1332.55 1073.46 Q1337.15 1068.81 1338.33 1067.47 Q1340.58 1064.94 1341.46 1063.21 Q1342.36 1061.45 1342.36 1059.76 Q1342.36 1057 1340.42 1055.27 Q1338.5 1053.53 1335.39 1053.53 Q1333.19 1053.53 1330.74 1054.29 Q1328.31 1055.06 1325.53 1056.61 L1325.53 1051.89 Q1328.36 1050.75 1330.81 1050.17 Q1333.26 1049.59 1335.3 1049.59 Q1340.67 1049.59 1343.87 1052.28 Q1347.06 1054.97 1347.06 1059.46 Q1347.06 1061.59 1346.25 1063.51 Q1345.46 1065.4 1343.36 1068 Q1342.78 1068.67 1339.68 1071.89 Q1336.57 1075.08 1330.93 1080.84 Z" fill="#000000" fill-rule="evenodd" fill-opacity="1" /><path clip-path="url(#clip360)" d="M1587.6 1080.84 L1595.24 1080.84 L1595.24 1054.48 L1586.93 1056.15 L1586.93 1051.89 L1595.19 1050.22 L1599.87 1050.22 L1599.87 1080.84 L1607.51 1080.84 L1607.51 1084.78 L1587.6 1084.78 L1587.6 1080.84 Z" fill="#000000" fill-rule="evenodd" fill-opacity="1" /><path clip-path="url(#clip360)" d="M1617 1050.22 L1635.36 1050.22 L1635.36 1054.16 L1621.28 1054.16 L1621.28 1062.63 Q1622.3 1062.28 1623.32 1062.12 Q1624.34 1061.93 1625.36 1061.93 Q1631.14 1061.93 1634.52 1065.1 Q1637.9 1068.28 1637.9 1073.69 Q1637.9 1079.27 1634.43 1082.37 Q1630.96 1085.45 1624.64 1085.45 Q1622.46 1085.45 1620.19 1085.08 Q1617.95 1084.71 1615.54 1083.97 L1615.54 1079.27 Q1617.63 1080.4 1619.85 1080.96 Q1622.07 1081.52 1624.55 1081.52 Q1628.55 1081.52 1630.89 1079.41 Q1633.23 1077.3 1633.23 1073.69 Q1633.23 1070.08 1630.89 1067.97 Q1628.55 1065.87 1624.55 1065.87 Q1622.67 1065.87 1620.8 1066.28 Q1618.94 1066.7 1617 1067.58 L1617 1050.22 Z" fill="#000000" fill-rule="evenodd" fill-opacity="1" /><path clip-path="url(#clip360)" d="M669.275 1145.25 Q669.275 1138.79 666.601 1135.13 Q663.959 1131.44 659.313 1131.44 Q654.666 1131.44 651.992 1135.13 Q649.35 1138.79 649.35 1145.25 Q649.35 1151.71 651.992 1155.4 Q654.666 1159.07 659.313 1159.07 Q663.959 1159.07 666.601 1155.4 Q669.275 1151.71 669.275 1145.25 M649.35 1132.81 Q651.196 1129.62 653.997 1128.1 Q656.83 1126.54 660.745 1126.54 Q667.238 1126.54 671.28 1131.69 Q675.354 1136.85 675.354 1145.25 Q675.354 1153.65 671.28 1158.81 Q667.238 1163.97 660.745 1163.97 Q656.83 1163.97 653.997 1162.44 Q651.196 1160.88 649.35 1157.7 L649.35 1163.04 L643.462 1163.04 L643.462 1113.52 L649.35 1113.52 L649.35 1132.81 Z" fill="#000000" fill-rule="evenodd" fill-opacity="1" /><path clip-path="url(#clip360)" d="M715.554 1143.76 L715.554 1146.62 L688.627 1146.62 Q689.009 1152.67 692.255 1155.85 Q695.533 1159 701.358 1159 Q704.732 1159 707.883 1158.17 Q711.066 1157.35 714.185 1155.69 L714.185 1161.23 Q711.034 1162.57 707.724 1163.27 Q704.414 1163.97 701.008 1163.97 Q692.478 1163.97 687.481 1159 Q682.516 1154.04 682.516 1145.57 Q682.516 1136.82 687.226 1131.69 Q691.969 1126.54 699.989 1126.54 Q707.183 1126.54 711.352 1131.18 Q715.554 1135.8 715.554 1143.76 M709.697 1142.04 Q709.633 1137.23 706.992 1134.37 Q704.382 1131.5 700.053 1131.5 Q695.151 1131.5 692.191 1134.27 Q689.263 1137.04 688.818 1142.07 L709.697 1142.04 Z" fill="#000000" fill-rule="evenodd" fill-opacity="1" /><path clip-path="url(#clip360)" d="M741.366 1145.12 Q734.269 1145.12 731.531 1146.75 Q728.794 1148.37 728.794 1152.29 Q728.794 1155.4 730.831 1157.25 Q732.9 1159.07 736.433 1159.07 Q741.303 1159.07 744.231 1155.63 Q747.191 1152.16 747.191 1146.43 L747.191 1145.12 L741.366 1145.12 M753.048 1142.71 L753.048 1163.04 L747.191 1163.04 L747.191 1157.63 Q745.186 1160.88 742.194 1162.44 Q739.202 1163.97 734.873 1163.97 Q729.399 1163.97 726.152 1160.91 Q722.938 1157.82 722.938 1152.67 Q722.938 1146.65 726.948 1143.6 Q730.99 1140.54 738.979 1140.54 L747.191 1140.54 L747.191 1139.97 Q747.191 1135.93 744.518 1133.73 Q741.876 1131.5 737.07 1131.5 Q734.014 1131.5 731.118 1132.23 Q728.221 1132.97 725.548 1134.43 L725.548 1129.02 Q728.762 1127.78 731.786 1127.17 Q734.81 1126.54 737.674 1126.54 Q745.409 1126.54 749.228 1130.55 Q753.048 1134.56 753.048 1142.71 Z" fill="#000000" fill-rule="evenodd" fill-opacity="1" /><path clip-path="url(#clip360)" d="M785.767 1132.87 Q784.781 1132.3 783.603 1132.04 Q782.457 1131.76 781.057 1131.76 Q776.091 1131.76 773.418 1135 Q770.776 1138.22 770.776 1144.27 L770.776 1163.04 L764.888 1163.04 L764.888 1127.4 L770.776 1127.4 L770.776 1132.93 Q772.622 1129.69 775.582 1128.13 Q778.542 1126.54 782.775 1126.54 Q783.38 1126.54 784.112 1126.63 Q784.844 1126.7 785.735 1126.85 L785.767 1132.87 Z" fill="#000000" fill-rule="evenodd" fill-opacity="1" /><path clip-path="url(#clip360)" d="M791.91 1127.4 L797.767 1127.4 L797.767 1163.04 L791.91 1163.04 L791.91 1127.4 M791.91 1113.52 L797.767 1113.52 L797.767 1120.93 L791.91 1120.93 L791.91 1113.52 Z" fill="#000000" fill-rule="evenodd" fill-opacity="1" /><path clip-path="url(#clip360)" d="M839.653 1141.53 L839.653 1163.04 L833.797 1163.04 L833.797 1141.72 Q833.797 1136.66 831.823 1134.14 Q829.85 1131.63 825.903 1131.63 Q821.161 1131.63 818.423 1134.65 Q815.686 1137.68 815.686 1142.9 L815.686 1163.04 L809.798 1163.04 L809.798 1127.4 L815.686 1127.4 L815.686 1132.93 Q817.787 1129.72 820.62 1128.13 Q823.484 1126.54 827.208 1126.54 Q833.351 1126.54 836.502 1130.36 Q839.653 1134.14 839.653 1141.53 Z" fill="#000000" fill-rule="evenodd" fill-opacity="1" /><path clip-path="url(#clip360)" d="M874.792 1144.81 Q874.792 1138.44 872.15 1134.94 Q869.54 1131.44 864.798 1131.44 Q860.087 1131.44 857.445 1134.94 Q854.835 1138.44 854.835 1144.81 Q854.835 1151.14 857.445 1154.64 Q860.087 1158.14 864.798 1158.14 Q869.54 1158.14 872.15 1154.64 Q874.792 1151.14 874.792 1144.81 M880.648 1158.62 Q880.648 1167.72 876.606 1172.15 Q872.564 1176.6 864.225 1176.6 Q861.137 1176.6 858.4 1176.13 Q855.663 1175.68 853.085 1174.72 L853.085 1169.03 Q855.663 1170.43 858.177 1171.1 Q860.692 1171.76 863.302 1171.76 Q869.063 1171.76 871.927 1168.74 Q874.792 1165.75 874.792 1159.67 L874.792 1156.77 Q872.977 1159.92 870.145 1161.48 Q867.312 1163.04 863.365 1163.04 Q856.809 1163.04 852.798 1158.05 Q848.788 1153.05 848.788 1144.81 Q848.788 1136.53 852.798 1131.53 Q856.809 1126.54 863.365 1126.54 Q867.312 1126.54 870.145 1128.1 Q872.977 1129.66 874.792 1132.81 L874.792 1127.4 L880.648 1127.4 L880.648 1158.62 Z" fill="#000000" fill-rule="evenodd" fill-opacity="1" /><path clip-path="url(#clip360)" d="M927.245 1132.04 Q922.407 1132.04 919.797 1135.54 Q917.06 1139.2 917.06 1145.25 Q917.06 1151.65 919.765 1155.34 Q922.503 1159 927.245 1159 Q931.924 1159 934.661 1155.31 Q937.398 1151.62 937.398 1145.25 Q937.398 1139.43 934.661 1135.54 Q932.147 1132.04 927.245 1132.04 M927.245 1127.4 L946.692 1127.4 L946.692 1133.25 L940.136 1133.25 Q943.605 1138.22 943.605 1145.25 Q943.605 1154 939.244 1158.97 Q934.884 1163.97 927.245 1163.97 Q919.574 1163.97 915.246 1158.97 Q910.885 1154 910.885 1145.25 Q910.885 1136.44 915.246 1131.5 Q918.842 1127.4 927.245 1127.4 Z" fill="#000000" fill-rule="evenodd" fill-opacity="1" /><path clip-path="url(#clip360)" d="M989.534 1113.58 Q985.269 1120.9 983.2 1128.06 Q981.131 1135.23 981.131 1142.58 Q981.131 1149.93 983.2 1157.16 Q985.3 1164.35 989.534 1171.64 L984.441 1171.64 Q979.667 1164.16 977.28 1156.93 Q974.924 1149.71 974.924 1142.58 Q974.924 1135.48 977.28 1128.29 Q979.635 1121.09 984.441 1113.58 L989.534 1113.58 Z" fill="#000000" fill-rule="evenodd" fill-opacity="1" /><path clip-path="url(#clip360)" d="M1000.9 1127.4 L1006.75 1127.4 L1006.75 1163.04 L1000.9 1163.04 L1000.9 1127.4 M1000.9 1113.52 L1006.75 1113.52 L1006.75 1120.93 L1000.9 1120.93 L1000.9 1113.52 Z" fill="#000000" fill-rule="evenodd" fill-opacity="1" /><path clip-path="url(#clip360)" d="M1048.64 1141.53 L1048.64 1163.04 L1042.78 1163.04 L1042.78 1141.72 Q1042.78 1136.66 1040.81 1134.14 Q1038.84 1131.63 1034.89 1131.63 Q1030.15 1131.63 1027.41 1134.65 Q1024.67 1137.68 1024.67 1142.9 L1024.67 1163.04 L1018.78 1163.04 L1018.78 1127.4 L1024.67 1127.4 L1024.67 1132.93 Q1026.77 1129.72 1029.61 1128.13 Q1032.47 1126.54 1036.19 1126.54 Q1042.34 1126.54 1045.49 1130.36 Q1048.64 1134.14 1048.64 1141.53 Z" fill="#000000" fill-rule="evenodd" fill-opacity="1" /><path clip-path="url(#clip360)" d="M1104.5 1132.81 L1104.5 1113.52 L1110.35 1113.52 L1110.35 1163.04 L1104.5 1163.04 L1104.5 1157.7 Q1102.65 1160.88 1099.82 1162.44 Q1097.02 1163.97 1093.07 1163.97 Q1086.61 1163.97 1082.54 1158.81 Q1078.49 1153.65 1078.49 1145.25 Q1078.49 1136.85 1082.54 1131.69 Q1086.61 1126.54 1093.07 1126.54 Q1097.02 1126.54 1099.82 1128.1 Q1102.65 1129.62 1104.5 1132.81 M1084.54 1145.25 Q1084.54 1151.71 1087.18 1155.4 Q1089.86 1159.07 1094.5 1159.07 Q1099.15 1159.07 1101.82 1155.4 Q1104.5 1151.71 1104.5 1145.25 Q1104.5 1138.79 1101.82 1135.13 Q1099.15 1131.44 1094.5 1131.44 Q1089.86 1131.44 1087.18 1135.13 Q1084.54 1138.79 1084.54 1145.25 Z" fill="#000000" fill-rule="evenodd" fill-opacity="1" /><path clip-path="url(#clip360)" d="M1152.91 1143.76 L1152.91 1146.62 L1125.98 1146.62 Q1126.36 1152.67 1129.61 1155.85 Q1132.89 1159 1138.71 1159 Q1142.09 1159 1145.24 1158.17 Q1148.42 1157.35 1151.54 1155.69 L1151.54 1161.23 Q1148.39 1162.57 1145.08 1163.27 Q1141.77 1163.97 1138.36 1163.97 Q1129.83 1163.97 1124.84 1159 Q1119.87 1154.04 1119.87 1145.57 Q1119.87 1136.82 1124.58 1131.69 Q1129.32 1126.54 1137.35 1126.54 Q1144.54 1126.54 1148.71 1131.18 Q1152.91 1135.8 1152.91 1143.76 M1147.05 1142.04 Q1146.99 1137.23 1144.35 1134.37 Q1141.74 1131.5 1137.41 1131.5 Q1132.51 1131.5 1129.55 1134.27 Q1126.62 1137.04 1126.17 1142.07 L1147.05 1142.04 Z" fill="#000000" fill-rule="evenodd" fill-opacity="1" /><path clip-path="url(#clip360)" d="M1185.98 1144.81 Q1185.98 1138.44 1183.34 1134.94 Q1180.73 1131.44 1175.99 1131.44 Q1171.27 1131.44 1168.63 1134.94 Q1166.02 1138.44 1166.02 1144.81 Q1166.02 1151.14 1168.63 1154.64 Q1171.27 1158.14 1175.99 1158.14 Q1180.73 1158.14 1183.34 1154.64 Q1185.98 1151.14 1185.98 1144.81 M1191.84 1158.62 Q1191.84 1167.72 1187.79 1172.15 Q1183.75 1176.6 1175.41 1176.6 Q1172.32 1176.6 1169.59 1176.13 Q1166.85 1175.68 1164.27 1174.72 L1164.27 1169.03 Q1166.85 1170.43 1169.36 1171.1 Q1171.88 1171.76 1174.49 1171.76 Q1180.25 1171.76 1183.11 1168.74 Q1185.98 1165.75 1185.98 1159.67 L1185.98 1156.77 Q1184.17 1159.92 1181.33 1161.48 Q1178.5 1163.04 1174.55 1163.04 Q1168 1163.04 1163.99 1158.05 Q1159.98 1153.05 1159.98 1144.81 Q1159.98 1136.53 1163.99 1131.53 Q1168 1126.54 1174.55 1126.54 Q1178.5 1126.54 1181.33 1128.1 Q1184.17 1129.66 1185.98 1132.81 L1185.98 1127.4 L1191.84 1127.4 L1191.84 1158.62 Z" fill="#000000" fill-rule="evenodd" fill-opacity="1" /><path clip-path="url(#clip360)" d="M1224.56 1132.87 Q1223.57 1132.3 1222.39 1132.04 Q1221.25 1131.76 1219.84 1131.76 Q1214.88 1131.76 1212.21 1135 Q1209.56 1138.22 1209.56 1144.27 L1209.56 1163.04 L1203.68 1163.04 L1203.68 1127.4 L1209.56 1127.4 L1209.56 1132.93 Q1211.41 1129.69 1214.37 1128.13 Q1217.33 1126.54 1221.56 1126.54 Q1222.17 1126.54 1222.9 1126.63 Q1223.63 1126.7 1224.52 1126.85 L1224.56 1132.87 Z" fill="#000000" fill-rule="evenodd" fill-opacity="1" /><path clip-path="url(#clip360)" d="M1259.76 1143.76 L1259.76 1146.62 L1232.83 1146.62 Q1233.21 1152.67 1236.46 1155.85 Q1239.74 1159 1245.56 1159 Q1248.94 1159 1252.09 1158.17 Q1255.27 1157.35 1258.39 1155.69 L1258.39 1161.23 Q1255.24 1162.57 1251.93 1163.27 Q1248.62 1163.97 1245.21 1163.97 Q1236.68 1163.97 1231.69 1159 Q1226.72 1154.04 1226.72 1145.57 Q1226.72 1136.82 1231.43 1131.69 Q1236.17 1126.54 1244.19 1126.54 Q1251.39 1126.54 1255.56 1131.18 Q1259.76 1135.8 1259.76 1143.76 M1253.9 1142.04 Q1253.84 1137.23 1251.2 1134.37 Q1248.59 1131.5 1244.26 1131.5 Q1239.36 1131.5 1236.4 1134.27 Q1233.47 1137.04 1233.02 1142.07 L1253.9 1142.04 Z" fill="#000000" fill-rule="evenodd" fill-opacity="1" /><path clip-path="url(#clip360)" d="M1299.86 1143.76 L1299.86 1146.62 L1272.93 1146.62 Q1273.32 1152.67 1276.56 1155.85 Q1279.84 1159 1285.67 1159 Q1289.04 1159 1292.19 1158.17 Q1295.37 1157.35 1298.49 1155.69 L1298.49 1161.23 Q1295.34 1162.57 1292.03 1163.27 Q1288.72 1163.97 1285.32 1163.97 Q1276.79 1163.97 1271.79 1159 Q1266.82 1154.04 1266.82 1145.57 Q1266.82 1136.82 1271.53 1131.69 Q1276.28 1126.54 1284.3 1126.54 Q1291.49 1126.54 1295.66 1131.18 Q1299.86 1135.8 1299.86 1143.76 M1294.01 1142.04 Q1293.94 1137.23 1291.3 1134.37 Q1288.69 1131.5 1284.36 1131.5 Q1279.46 1131.5 1276.5 1134.27 Q1273.57 1137.04 1273.13 1142.07 L1294.01 1142.04 Z" fill="#000000" fill-rule="evenodd" fill-opacity="1" /><path clip-path="url(#clip360)" d="M1308.55 1113.58 L1313.64 1113.58 Q1318.42 1121.09 1320.77 1128.29 Q1323.16 1135.48 1323.16 1142.58 Q1323.16 1149.71 1320.77 1156.93 Q1318.42 1164.16 1313.64 1171.64 L1308.55 1171.64 Q1312.78 1164.35 1314.85 1157.16 Q1316.95 1149.93 1316.95 1142.58 Q1316.95 1135.23 1314.85 1128.06 Q1312.78 1120.9 1308.55 1113.58 Z" fill="#000000" fill-rule="evenodd" fill-opacity="1" /><polyline clip-path="url(#clip362)" style="stroke:#000000; stroke-linecap:butt; stroke-linejoin:round; stroke-width:2; stroke-opacity:0.1; fill:none" points="
  213.866,914.529 1752.76,914.529 
  "/>
<polyline clip-path="url(#clip362)" style="stroke:#000000; stroke-linecap:butt; stroke-linejoin:round; stroke-width:2; stroke-opacity:0.1; fill:none" points="
  213.866,794.336 1752.76,794.336 
  "/>
<polyline clip-path="url(#clip362)" style="stroke:#000000; stroke-linecap:butt; stroke-linejoin:round; stroke-width:2; stroke-opacity:0.1; fill:none" points="
  213.866,674.142 1752.76,674.142 
  "/>
<polyline clip-path="url(#clip362)" style="stroke:#000000; stroke-linecap:butt; stroke-linejoin:round; stroke-width:2; stroke-opacity:0.1; fill:none" points="
  213.866,553.949 1752.76,553.949 
  "/>
<polyline clip-path="url(#clip362)" style="stroke:#000000; stroke-linecap:butt; stroke-linejoin:round; stroke-width:2; stroke-opacity:0.1; fill:none" points="
  213.866,433.755 1752.76,433.755 
  "/>
<polyline clip-path="url(#clip362)" style="stroke:#000000; stroke-linecap:butt; stroke-linejoin:round; stroke-width:2; stroke-opacity:0.1; fill:none" points="
  213.866,313.562 1752.76,313.562 
  "/>
<polyline clip-path="url(#clip362)" style="stroke:#000000; stroke-linecap:butt; stroke-linejoin:round; stroke-width:2; stroke-opacity:0.1; fill:none" points="
  213.866,193.369 1752.76,193.369 
  "/>
<polyline clip-path="url(#clip362)" style="stroke:#000000; stroke-linecap:butt; stroke-linejoin:round; stroke-width:2; stroke-opacity:0.1; fill:none" points="
  213.866,73.1752 1752.76,73.1752 
  "/>
<polyline clip-path="url(#clip360)" style="stroke:#000000; stroke-linecap:butt; stroke-linejoin:round; stroke-width:4; stroke-opacity:1; fill:none" points="
  213.866,1027.18 213.866,47.2441 
  "/>
<polyline clip-path="url(#clip360)" style="stroke:#000000; stroke-linecap:butt; stroke-linejoin:round; stroke-width:4; stroke-opacity:1; fill:none" points="
  213.866,914.529 232.764,914.529 
  "/>
<polyline clip-path="url(#clip360)" style="stroke:#000000; stroke-linecap:butt; stroke-linejoin:round; stroke-width:4; stroke-opacity:1; fill:none" points="
  213.866,794.336 232.764,794.336 
  "/>
<polyline clip-path="url(#clip360)" style="stroke:#000000; stroke-linecap:butt; stroke-linejoin:round; stroke-width:4; stroke-opacity:1; fill:none" points="
  213.866,674.142 232.764,674.142 
  "/>
<polyline clip-path="url(#clip360)" style="stroke:#000000; stroke-linecap:butt; stroke-linejoin:round; stroke-width:4; stroke-opacity:1; fill:none" points="
  213.866,553.949 232.764,553.949 
  "/>
<polyline clip-path="url(#clip360)" style="stroke:#000000; stroke-linecap:butt; stroke-linejoin:round; stroke-width:4; stroke-opacity:1; fill:none" points="
  213.866,433.755 232.764,433.755 
  "/>
<polyline clip-path="url(#clip360)" style="stroke:#000000; stroke-linecap:butt; stroke-linejoin:round; stroke-width:4; stroke-opacity:1; fill:none" points="
  213.866,313.562 232.764,313.562 
  "/>
<polyline clip-path="url(#clip360)" style="stroke:#000000; stroke-linecap:butt; stroke-linejoin:round; stroke-width:4; stroke-opacity:1; fill:none" points="
  213.866,193.369 232.764,193.369 
  "/>
<polyline clip-path="url(#clip360)" style="stroke:#000000; stroke-linecap:butt; stroke-linejoin:round; stroke-width:4; stroke-opacity:1; fill:none" points="
  213.866,73.1752 232.764,73.1752 
  "/>
<path clip-path="url(#clip360)" d="M129.205 900.328 Q125.593 900.328 123.765 903.893 Q121.959 907.434 121.959 914.564 Q121.959 921.67 123.765 925.235 Q125.593 928.777 129.205 928.777 Q132.839 928.777 134.644 925.235 Q136.473 921.67 136.473 914.564 Q136.473 907.434 134.644 903.893 Q132.839 900.328 129.205 900.328 M129.205 896.624 Q135.015 896.624 138.07 901.231 Q141.149 905.814 141.149 914.564 Q141.149 923.291 138.07 927.897 Q135.015 932.48 129.205 932.48 Q123.394 932.48 120.316 927.897 Q117.26 923.291 117.26 914.564 Q117.26 905.814 120.316 901.231 Q123.394 896.624 129.205 896.624 Z" fill="#000000" fill-rule="evenodd" fill-opacity="1" /><path clip-path="url(#clip360)" d="M149.366 925.93 L154.251 925.93 L154.251 931.809 L149.366 931.809 L149.366 925.93 Z" fill="#000000" fill-rule="evenodd" fill-opacity="1" /><path clip-path="url(#clip360)" d="M177.283 901.323 L165.477 919.772 L177.283 919.772 L177.283 901.323 M176.056 897.249 L181.936 897.249 L181.936 919.772 L186.866 919.772 L186.866 923.661 L181.936 923.661 L181.936 931.809 L177.283 931.809 L177.283 923.661 L161.681 923.661 L161.681 919.147 L176.056 897.249 Z" fill="#000000" fill-rule="evenodd" fill-opacity="1" /><path clip-path="url(#clip360)" d="M129.529 780.134 Q125.918 780.134 124.089 783.699 Q122.283 787.241 122.283 794.37 Q122.283 801.477 124.089 805.042 Q125.918 808.583 129.529 808.583 Q133.163 808.583 134.968 805.042 Q136.797 801.477 136.797 794.37 Q136.797 787.241 134.968 783.699 Q133.163 780.134 129.529 780.134 M129.529 776.431 Q135.339 776.431 138.394 781.037 Q141.473 785.621 141.473 794.37 Q141.473 803.097 138.394 807.704 Q135.339 812.287 129.529 812.287 Q123.718 812.287 120.64 807.704 Q117.584 803.097 117.584 794.37 Q117.584 785.621 120.64 781.037 Q123.718 776.431 129.529 776.431 Z" fill="#000000" fill-rule="evenodd" fill-opacity="1" /><path clip-path="url(#clip360)" d="M149.691 805.736 L154.575 805.736 L154.575 811.616 L149.691 811.616 L149.691 805.736 Z" fill="#000000" fill-rule="evenodd" fill-opacity="1" /><path clip-path="url(#clip360)" d="M175.339 792.472 Q172.19 792.472 170.339 794.625 Q168.51 796.778 168.51 800.528 Q168.51 804.255 170.339 806.431 Q172.19 808.583 175.339 808.583 Q178.487 808.583 180.315 806.431 Q182.167 804.255 182.167 800.528 Q182.167 796.778 180.315 794.625 Q178.487 792.472 175.339 792.472 M184.621 777.82 L184.621 782.079 Q182.862 781.246 181.056 780.806 Q179.274 780.366 177.514 780.366 Q172.885 780.366 170.431 783.491 Q168.001 786.616 167.653 792.935 Q169.019 790.921 171.079 789.857 Q173.139 788.769 175.616 788.769 Q180.825 788.769 183.834 791.94 Q186.866 795.088 186.866 800.528 Q186.866 805.852 183.718 809.069 Q180.57 812.287 175.339 812.287 Q169.343 812.287 166.172 807.704 Q163.001 803.097 163.001 794.37 Q163.001 786.176 166.89 781.315 Q170.778 776.431 177.329 776.431 Q179.089 776.431 180.871 776.778 Q182.676 777.125 184.621 777.82 Z" fill="#000000" fill-rule="evenodd" fill-opacity="1" /><path clip-path="url(#clip360)" d="M129.783 659.941 Q126.172 659.941 124.343 663.506 Q122.538 667.047 122.538 674.177 Q122.538 681.283 124.343 684.848 Q126.172 688.39 129.783 688.39 Q133.417 688.39 135.223 684.848 Q137.052 681.283 137.052 674.177 Q137.052 667.047 135.223 663.506 Q133.417 659.941 129.783 659.941 M129.783 656.237 Q135.593 656.237 138.649 660.844 Q141.728 665.427 141.728 674.177 Q141.728 682.904 138.649 687.51 Q135.593 692.094 129.783 692.094 Q123.973 692.094 120.894 687.51 Q117.839 682.904 117.839 674.177 Q117.839 665.427 120.894 660.844 Q123.973 656.237 129.783 656.237 Z" fill="#000000" fill-rule="evenodd" fill-opacity="1" /><path clip-path="url(#clip360)" d="M149.945 685.543 L154.829 685.543 L154.829 691.422 L149.945 691.422 L149.945 685.543 Z" fill="#000000" fill-rule="evenodd" fill-opacity="1" /><path clip-path="url(#clip360)" d="M175.014 675.01 Q171.681 675.01 169.76 676.793 Q167.862 678.575 167.862 681.7 Q167.862 684.825 169.76 686.608 Q171.681 688.39 175.014 688.39 Q178.348 688.39 180.269 686.608 Q182.19 684.802 182.19 681.7 Q182.19 678.575 180.269 676.793 Q178.371 675.01 175.014 675.01 M170.339 673.02 Q167.329 672.279 165.64 670.219 Q163.973 668.159 163.973 665.196 Q163.973 661.052 166.913 658.645 Q169.876 656.237 175.014 656.237 Q180.176 656.237 183.116 658.645 Q186.056 661.052 186.056 665.196 Q186.056 668.159 184.366 670.219 Q182.7 672.279 179.714 673.02 Q183.093 673.807 184.968 676.098 Q186.866 678.39 186.866 681.7 Q186.866 686.723 183.788 689.408 Q180.732 692.094 175.014 692.094 Q169.297 692.094 166.218 689.408 Q163.163 686.723 163.163 681.7 Q163.163 678.39 165.061 676.098 Q166.959 673.807 170.339 673.02 M168.626 665.635 Q168.626 668.321 170.292 669.825 Q171.982 671.33 175.014 671.33 Q178.024 671.33 179.714 669.825 Q181.426 668.321 181.426 665.635 Q181.426 662.95 179.714 661.446 Q178.024 659.941 175.014 659.941 Q171.982 659.941 170.292 661.446 Q168.626 662.95 168.626 665.635 Z" fill="#000000" fill-rule="evenodd" fill-opacity="1" /><path clip-path="url(#clip360)" d="M120.501 567.294 L128.14 567.294 L128.14 540.928 L119.83 542.595 L119.83 538.336 L128.093 536.669 L132.769 536.669 L132.769 567.294 L140.408 567.294 L140.408 571.229 L120.501 571.229 L120.501 567.294 Z" fill="#000000" fill-rule="evenodd" fill-opacity="1" /><path clip-path="url(#clip360)" d="M149.853 565.349 L154.737 565.349 L154.737 571.229 L149.853 571.229 L149.853 565.349 Z" fill="#000000" fill-rule="evenodd" fill-opacity="1" /><path clip-path="url(#clip360)" d="M174.922 539.748 Q171.311 539.748 169.482 543.312 Q167.677 546.854 167.677 553.984 Q167.677 561.09 169.482 564.655 Q171.311 568.197 174.922 568.197 Q178.556 568.197 180.362 564.655 Q182.19 561.09 182.19 553.984 Q182.19 546.854 180.362 543.312 Q178.556 539.748 174.922 539.748 M174.922 536.044 Q180.732 536.044 183.788 540.65 Q186.866 545.234 186.866 553.984 Q186.866 562.71 183.788 567.317 Q180.732 571.9 174.922 571.9 Q169.112 571.9 166.033 567.317 Q162.978 562.71 162.978 553.984 Q162.978 545.234 166.033 540.65 Q169.112 536.044 174.922 536.044 Z" fill="#000000" fill-rule="evenodd" fill-opacity="1" /><path clip-path="url(#clip360)" d="M122.098 447.1 L129.737 447.1 L129.737 420.735 L121.427 422.401 L121.427 418.142 L129.691 416.475 L134.367 416.475 L134.367 447.1 L142.005 447.1 L142.005 451.035 L122.098 451.035 L122.098 447.1 Z" fill="#000000" fill-rule="evenodd" fill-opacity="1" /><path clip-path="url(#clip360)" d="M151.45 445.156 L156.334 445.156 L156.334 451.035 L151.45 451.035 L151.45 445.156 Z" fill="#000000" fill-rule="evenodd" fill-opacity="1" /><path clip-path="url(#clip360)" d="M170.547 447.1 L186.866 447.1 L186.866 451.035 L164.922 451.035 L164.922 447.1 Q167.584 444.346 172.167 439.716 Q176.774 435.063 177.954 433.721 Q180.2 431.198 181.079 429.462 Q181.982 427.702 181.982 426.012 Q181.982 423.258 180.038 421.522 Q178.116 419.786 175.014 419.786 Q172.815 419.786 170.362 420.55 Q167.931 421.313 165.153 422.864 L165.153 418.142 Q167.977 417.008 170.431 416.429 Q172.885 415.85 174.922 415.85 Q180.292 415.85 183.487 418.536 Q186.681 421.221 186.681 425.712 Q186.681 427.841 185.871 429.762 Q185.084 431.661 182.977 434.253 Q182.399 434.924 179.297 438.142 Q176.195 441.336 170.547 447.1 Z" fill="#000000" fill-rule="evenodd" fill-opacity="1" /><path clip-path="url(#clip360)" d="M120.015 326.907 L127.654 326.907 L127.654 300.541 L119.343 302.208 L119.343 297.949 L127.607 296.282 L132.283 296.282 L132.283 326.907 L139.922 326.907 L139.922 330.842 L120.015 330.842 L120.015 326.907 Z" fill="#000000" fill-rule="evenodd" fill-opacity="1" /><path clip-path="url(#clip360)" d="M149.366 324.962 L154.251 324.962 L154.251 330.842 L149.366 330.842 L149.366 324.962 Z" fill="#000000" fill-rule="evenodd" fill-opacity="1" /><path clip-path="url(#clip360)" d="M177.283 300.356 L165.477 318.805 L177.283 318.805 L177.283 300.356 M176.056 296.282 L181.936 296.282 L181.936 318.805 L186.866 318.805 L186.866 322.694 L181.936 322.694 L181.936 330.842 L177.283 330.842 L177.283 322.694 L161.681 322.694 L161.681 318.18 L176.056 296.282 Z" fill="#000000" fill-rule="evenodd" fill-opacity="1" /><path clip-path="url(#clip360)" d="M120.339 206.713 L127.978 206.713 L127.978 180.348 L119.668 182.015 L119.668 177.755 L127.931 176.089 L132.607 176.089 L132.607 206.713 L140.246 206.713 L140.246 210.649 L120.339 210.649 L120.339 206.713 Z" fill="#000000" fill-rule="evenodd" fill-opacity="1" /><path clip-path="url(#clip360)" d="M149.691 204.769 L154.575 204.769 L154.575 210.649 L149.691 210.649 L149.691 204.769 Z" fill="#000000" fill-rule="evenodd" fill-opacity="1" /><path clip-path="url(#clip360)" d="M175.339 191.505 Q172.19 191.505 170.339 193.658 Q168.51 195.811 168.51 199.561 Q168.51 203.288 170.339 205.463 Q172.19 207.616 175.339 207.616 Q178.487 207.616 180.315 205.463 Q182.167 203.288 182.167 199.561 Q182.167 195.811 180.315 193.658 Q178.487 191.505 175.339 191.505 M184.621 176.853 L184.621 181.112 Q182.862 180.278 181.056 179.839 Q179.274 179.399 177.514 179.399 Q172.885 179.399 170.431 182.524 Q168.001 185.649 167.653 191.968 Q169.019 189.954 171.079 188.89 Q173.139 187.802 175.616 187.802 Q180.825 187.802 183.834 190.973 Q186.866 194.121 186.866 199.561 Q186.866 204.885 183.718 208.102 Q180.57 211.32 175.339 211.32 Q169.343 211.32 166.172 206.737 Q163.001 202.13 163.001 193.403 Q163.001 185.209 166.89 180.348 Q170.778 175.464 177.329 175.464 Q179.089 175.464 180.871 175.811 Q182.676 176.158 184.621 176.853 Z" fill="#000000" fill-rule="evenodd" fill-opacity="1" /><path clip-path="url(#clip360)" d="M120.593 86.5201 L128.232 86.5201 L128.232 60.1545 L119.922 61.8211 L119.922 57.5619 L128.186 55.8952 L132.862 55.8952 L132.862 86.5201 L140.501 86.5201 L140.501 90.4552 L120.593 90.4552 L120.593 86.5201 Z" fill="#000000" fill-rule="evenodd" fill-opacity="1" /><path clip-path="url(#clip360)" d="M149.945 84.5756 L154.829 84.5756 L154.829 90.4552 L149.945 90.4552 L149.945 84.5756 Z" fill="#000000" fill-rule="evenodd" fill-opacity="1" /><path clip-path="url(#clip360)" d="M175.014 74.0433 Q171.681 74.0433 169.76 75.8257 Q167.862 77.6081 167.862 80.7331 Q167.862 83.858 169.76 85.6404 Q171.681 87.4228 175.014 87.4228 Q178.348 87.4228 180.269 85.6404 Q182.19 83.8349 182.19 80.7331 Q182.19 77.6081 180.269 75.8257 Q178.371 74.0433 175.014 74.0433 M170.339 72.0525 Q167.329 71.3118 165.64 69.2516 Q163.973 67.1915 163.973 64.2285 Q163.973 60.085 166.913 57.6776 Q169.876 55.2702 175.014 55.2702 Q180.176 55.2702 183.116 57.6776 Q186.056 60.085 186.056 64.2285 Q186.056 67.1915 184.366 69.2516 Q182.7 71.3118 179.714 72.0525 Q183.093 72.8396 184.968 75.1312 Q186.866 77.4229 186.866 80.7331 Q186.866 85.7562 183.788 88.4413 Q180.732 91.1265 175.014 91.1265 Q169.297 91.1265 166.218 88.4413 Q163.163 85.7562 163.163 80.7331 Q163.163 77.4229 165.061 75.1312 Q166.959 72.8396 170.339 72.0525 M168.626 64.6683 Q168.626 67.3535 170.292 68.8581 Q171.982 70.3627 175.014 70.3627 Q178.024 70.3627 179.714 68.8581 Q181.426 67.3535 181.426 64.6683 Q181.426 61.9832 179.714 60.4785 Q178.024 58.9739 175.014 58.9739 Q171.982 58.9739 170.292 60.4785 Q168.626 61.9832 168.626 64.6683 Z" fill="#000000" fill-rule="evenodd" fill-opacity="1" /><path clip-path="url(#clip360)" d="M33.7677 771.947 L51.6235 771.947 L51.6235 763.863 Q51.6235 759.375 49.3 756.924 Q46.9765 754.474 42.6797 754.474 Q38.4147 754.474 36.0912 756.924 Q33.7677 759.375 33.7677 763.863 L33.7677 771.947 M28.4842 778.377 L28.4842 763.863 Q28.4842 755.874 32.1126 751.8 Q35.7092 747.694 42.6797 747.694 Q49.7138 747.694 53.3104 751.8 Q56.907 755.874 56.907 763.863 L56.907 771.947 L76.0042 771.947 L76.0042 778.377 L28.4842 778.377 Z" fill="#000000" fill-rule="evenodd" fill-opacity="1" /><path clip-path="url(#clip360)" d="M44.4621 727.833 Q44.4621 732.544 48.1542 735.281 Q51.8145 738.018 58.212 738.018 Q64.6095 738.018 68.3017 735.313 Q71.9619 732.576 71.9619 727.833 Q71.9619 723.154 68.2698 720.417 Q64.5777 717.68 58.212 717.68 Q51.8781 717.68 48.186 720.417 Q44.4621 723.154 44.4621 727.833 M39.4968 727.833 Q39.4968 720.194 44.4621 715.834 Q49.4273 711.473 58.212 711.473 Q66.9649 711.473 71.9619 715.834 Q76.9272 720.194 76.9272 727.833 Q76.9272 735.504 71.9619 739.864 Q66.9649 744.193 58.212 744.193 Q49.4273 744.193 44.4621 739.864 Q39.4968 735.504 39.4968 727.833 Z" fill="#000000" fill-rule="evenodd" fill-opacity="1" /><path clip-path="url(#clip360)" d="M41.4065 679.04 L46.9447 679.04 Q45.6716 681.523 45.035 684.196 Q44.3984 686.87 44.3984 689.734 Q44.3984 694.095 45.7352 696.291 Q47.072 698.455 49.7456 698.455 Q51.7826 698.455 52.9603 696.896 Q54.1061 695.336 55.1565 690.625 L55.6021 688.62 Q56.9389 682.382 59.3897 679.772 Q61.8086 677.13 66.1691 677.13 Q71.1344 677.13 74.0308 681.077 Q76.9272 684.992 76.9272 691.867 Q76.9272 694.731 76.3543 697.851 Q75.8132 700.938 74.6992 704.375 L68.6518 704.375 Q70.3387 701.129 71.198 697.978 Q72.0256 694.827 72.0256 691.739 Q72.0256 687.602 70.6251 685.374 Q69.1929 683.146 66.6147 683.146 Q64.2276 683.146 62.9545 684.769 Q61.6813 686.36 60.5037 691.803 L60.0262 693.84 Q58.8804 699.283 56.5251 701.702 Q54.138 704.121 50.0002 704.121 Q44.9713 704.121 42.2341 700.556 Q39.4968 696.991 39.4968 690.435 Q39.4968 687.188 39.9743 684.323 Q40.4517 681.459 41.4065 679.04 Z" fill="#000000" fill-rule="evenodd" fill-opacity="1" /><path clip-path="url(#clip360)" d="M30.2347 662.012 L40.3562 662.012 L40.3562 649.949 L44.9077 649.949 L44.9077 662.012 L64.2594 662.012 Q68.6199 662.012 69.8613 660.834 Q71.1026 659.625 71.1026 655.964 L71.1026 649.949 L76.0042 649.949 L76.0042 655.964 Q76.0042 662.744 73.4897 665.322 Q70.9434 667.9 64.2594 667.9 L44.9077 667.9 L44.9077 672.197 L40.3562 672.197 L40.3562 667.9 L30.2347 667.9 L30.2347 662.012 Z" fill="#000000" fill-rule="evenodd" fill-opacity="1" /><path clip-path="url(#clip360)" d="M56.7161 611.754 L59.5806 611.754 L59.5806 638.681 Q65.6281 638.299 68.8109 635.053 Q71.9619 631.775 71.9619 625.95 Q71.9619 622.576 71.1344 619.425 Q70.3069 616.242 68.6518 613.123 L74.1899 613.123 Q75.5267 616.274 76.227 619.584 Q76.9272 622.894 76.9272 626.3 Q76.9272 634.83 71.9619 639.827 Q66.9967 644.792 58.5303 644.792 Q49.7774 644.792 44.6531 640.082 Q39.4968 635.339 39.4968 627.319 Q39.4968 620.125 44.1438 615.956 Q48.7589 611.754 56.7161 611.754 M54.9973 617.611 Q50.1912 617.675 47.3266 620.316 Q44.4621 622.926 44.4621 627.255 Q44.4621 632.156 47.2312 635.117 Q50.0002 638.045 55.0292 638.49 L54.9973 617.611 Z" fill="#000000" fill-rule="evenodd" fill-opacity="1" /><path clip-path="url(#clip360)" d="M45.8307 581.485 Q45.2578 582.472 45.0032 583.65 Q44.7167 584.796 44.7167 586.196 Q44.7167 591.161 47.9632 593.835 Q51.1779 596.477 57.2253 596.477 L76.0042 596.477 L76.0042 602.365 L40.3562 602.365 L40.3562 596.477 L45.8944 596.477 Q42.6479 594.631 41.0883 591.671 Q39.4968 588.711 39.4968 584.477 Q39.4968 583.873 39.5923 583.141 Q39.656 582.408 39.8151 581.517 L45.8307 581.485 Z" fill="#000000" fill-rule="evenodd" fill-opacity="1" /><path clip-path="url(#clip360)" d="M40.3562 575.343 L40.3562 569.486 L76.0042 569.486 L76.0042 575.343 L40.3562 575.343 M26.479 575.343 L26.479 569.486 L33.895 569.486 L33.895 575.343 L26.479 575.343 Z" fill="#000000" fill-rule="evenodd" fill-opacity="1" /><path clip-path="url(#clip360)" d="M44.4621 543.419 Q44.4621 548.129 48.1542 550.866 Q51.8145 553.604 58.212 553.604 Q64.6095 553.604 68.3017 550.898 Q71.9619 548.161 71.9619 543.419 Q71.9619 538.74 68.2698 536.002 Q64.5777 533.265 58.212 533.265 Q51.8781 533.265 48.186 536.002 Q44.4621 538.74 44.4621 543.419 M39.4968 543.419 Q39.4968 535.78 44.4621 531.419 Q49.4273 527.059 58.212 527.059 Q66.9649 527.059 71.9619 531.419 Q76.9272 535.78 76.9272 543.419 Q76.9272 551.089 71.9619 555.45 Q66.9649 559.778 58.212 559.778 Q49.4273 559.778 44.4621 555.45 Q39.4968 551.089 39.4968 543.419 Z" fill="#000000" fill-rule="evenodd" fill-opacity="1" /><path clip-path="url(#clip360)" d="M45.8307 496.694 Q45.2578 497.681 45.0032 498.859 Q44.7167 500.004 44.7167 501.405 Q44.7167 506.37 47.9632 509.044 Q51.1779 511.685 57.2253 511.685 L76.0042 511.685 L76.0042 517.574 L40.3562 517.574 L40.3562 511.685 L45.8944 511.685 Q42.6479 509.839 41.0883 506.879 Q39.4968 503.919 39.4968 499.686 Q39.4968 499.081 39.5923 498.349 Q39.656 497.617 39.8151 496.726 L45.8307 496.694 Z" fill="#000000" fill-rule="evenodd" fill-opacity="1" /><path clip-path="url(#clip360)" d="M53.7242 447.042 Q54.4244 444.973 56.7161 443.031 Q59.0077 441.058 63.0181 439.085 L76.0042 432.56 L76.0042 439.467 L63.8138 445.546 Q59.0395 447.901 57.48 450.129 Q55.9204 452.325 55.9204 456.145 L55.9204 463.147 L76.0042 463.147 L76.0042 469.576 L28.4842 469.576 L28.4842 455.063 Q28.4842 446.914 31.8898 442.904 Q35.2955 438.894 42.1704 438.894 Q46.6582 438.894 49.6183 440.994 Q52.5784 443.063 53.7242 447.042 M33.7677 463.147 L50.6368 463.147 L50.6368 455.063 Q50.6368 450.416 48.5043 448.06 Q46.34 445.673 42.1704 445.673 Q38.0009 445.673 35.9002 448.06 Q33.7677 450.416 33.7677 455.063 L33.7677 463.147 Z" fill="#000000" fill-rule="evenodd" fill-opacity="1" /><path clip-path="url(#clip360)" d="M28.4842 424.284 L28.4842 414.704 L60.8219 402.577 L28.4842 390.387 L28.4842 380.807 L76.0042 380.807 L76.0042 387.077 L34.277 387.077 L66.8694 399.331 L66.8694 405.792 L34.277 418.046 L76.0042 418.046 L76.0042 424.284 L28.4842 424.284 Z" fill="#000000" fill-rule="evenodd" fill-opacity="1" /><path clip-path="url(#clip360)" d="M30.0438 339.557 L36.314 339.557 Q34.5634 343.217 33.704 346.464 Q32.8447 349.71 32.8447 352.734 Q32.8447 357.985 34.8817 360.85 Q36.9187 363.683 40.6745 363.683 Q43.8255 363.683 45.4488 361.805 Q47.0402 359.895 48.0269 354.612 L48.8226 350.729 Q50.1912 343.535 53.6605 340.13 Q57.098 336.692 62.8908 336.692 Q69.7976 336.692 73.3624 341.339 Q76.9272 345.954 76.9272 354.898 Q76.9272 358.272 76.1633 362.091 Q75.3994 365.879 73.9035 369.953 L67.2831 369.953 Q69.4793 366.038 70.5933 362.282 Q71.7073 358.527 71.7073 354.898 Q71.7073 349.392 69.543 346.4 Q67.3786 343.408 63.3682 343.408 Q59.8671 343.408 57.8937 345.572 Q55.9204 347.705 54.9337 352.606 L54.1698 356.521 Q52.7375 363.715 49.682 366.929 Q46.6264 370.144 41.1837 370.144 Q34.8817 370.144 31.2532 365.72 Q27.6248 361.264 27.6248 353.466 Q27.6248 350.124 28.2295 346.655 Q28.8343 343.185 30.0438 339.557 Z" fill="#000000" fill-rule="evenodd" fill-opacity="1" /><path clip-path="url(#clip360)" d="M28.4842 326.666 L28.4842 296.62 L33.895 296.62 L33.895 320.237 L47.9632 320.237 L47.9632 297.607 L53.3741 297.607 L53.3741 320.237 L70.5933 320.237 L70.5933 296.047 L76.0042 296.047 L76.0042 326.666 L28.4842 326.666 Z" fill="#000000" fill-rule="evenodd" fill-opacity="1" /><polyline clip-path="url(#clip362)" style="stroke:#009af9; stroke-linecap:butt; stroke-linejoin:round; stroke-width:4; stroke-opacity:1; fill:none" points="
  257.42,643.072 547.776,553.348 934.918,417.71 1322.06,272.696 1709.2,74.9781 
  "/>
<circle clip-path="url(#clip362)" cx="257.42" cy="643.072" r="10" fill="#009af9" fill-rule="evenodd" fill-opacity="1" stroke="#000000" stroke-opacity="1" stroke-width="2.4"/>
<circle clip-path="url(#clip362)" cx="547.776" cy="553.348" r="10" fill="#009af9" fill-rule="evenodd" fill-opacity="1" stroke="#000000" stroke-opacity="1" stroke-width="2.4"/>
<circle clip-path="url(#clip362)" cx="934.918" cy="417.71" r="10" fill="#009af9" fill-rule="evenodd" fill-opacity="1" stroke="#000000" stroke-opacity="1" stroke-width="2.4"/>
<circle clip-path="url(#clip362)" cx="1322.06" cy="272.696" r="10" fill="#009af9" fill-rule="evenodd" fill-opacity="1" stroke="#000000" stroke-opacity="1" stroke-width="2.4"/>
<circle clip-path="url(#clip362)" cx="1709.2" cy="74.9781" r="10" fill="#009af9" fill-rule="evenodd" fill-opacity="1" stroke="#000000" stroke-opacity="1" stroke-width="2.4"/>
<polyline clip-path="url(#clip362)" style="stroke:#e26f46; stroke-linecap:butt; stroke-linejoin:round; stroke-width:4; stroke-opacity:1; fill:none" points="
  257.42,867.954 547.776,722.64 934.918,578.168 1322.06,419.332 1709.2,272.696 
  "/>
<path clip-path="url(#clip362)" d="M245.42 855.954 L245.42 879.954 L269.42 879.954 L269.42 855.954 L245.42 855.954 Z" fill="#e26f46" fill-rule="evenodd" fill-opacity="1" stroke="#000000" stroke-opacity="1" stroke-width="2.4"/>
<path clip-path="url(#clip362)" d="M535.776 710.64 L535.776 734.64 L559.776 734.64 L559.776 710.64 L535.776 710.64 Z" fill="#e26f46" fill-rule="evenodd" fill-opacity="1" stroke="#000000" stroke-opacity="1" stroke-width="2.4"/>
<path clip-path="url(#clip362)" d="M922.918 566.168 L922.918 590.168 L946.918 590.168 L946.918 566.168 L922.918 566.168 Z" fill="#e26f46" fill-rule="evenodd" fill-opacity="1" stroke="#000000" stroke-opacity="1" stroke-width="2.4"/>
<path clip-path="url(#clip362)" d="M1310.06 407.332 L1310.06 431.332 L1334.06 431.332 L1334.06 407.332 L1310.06 407.332 Z" fill="#e26f46" fill-rule="evenodd" fill-opacity="1" stroke="#000000" stroke-opacity="1" stroke-width="2.4"/>
<path clip-path="url(#clip362)" d="M1697.2 260.696 L1697.2 284.696 L1721.2 284.696 L1721.2 260.696 L1697.2 260.696 Z" fill="#e26f46" fill-rule="evenodd" fill-opacity="1" stroke="#000000" stroke-opacity="1" stroke-width="2.4"/>
<polyline clip-path="url(#clip362)" style="stroke:#3da44d; stroke-linecap:butt; stroke-linejoin:round; stroke-width:4; stroke-opacity:1; fill:none" points="
  257.42,917.834 547.776,736.703 934.918,581.894 1322.06,463.563 1709.2,372.757 
  "/>
<path clip-path="url(#clip362)" d="M257.42 905.834 L254.6 913.946 L246.008 914.126 L252.86 919.322 L250.364 927.542 L257.42 922.634 L264.476 927.542 L261.98 919.322 L268.832 914.126 L260.24 913.946 L257.42 905.834 Z" fill="#3da44d" fill-rule="evenodd" fill-opacity="1" stroke="#000000" stroke-opacity="1" stroke-width="2.4"/>
<path clip-path="url(#clip362)" d="M547.776 724.703 L544.956 732.815 L536.364 732.995 L543.216 738.191 L540.72 746.411 L547.776 741.503 L554.832 746.411 L552.336 738.191 L559.188 732.995 L550.596 732.815 L547.776 724.703 Z" fill="#3da44d" fill-rule="evenodd" fill-opacity="1" stroke="#000000" stroke-opacity="1" stroke-width="2.4"/>
<path clip-path="url(#clip362)" d="M934.918 569.894 L932.098 578.006 L923.506 578.186 L930.358 583.382 L927.862 591.602 L934.918 586.694 L941.974 591.602 L939.478 583.382 L946.33 578.186 L937.738 578.006 L934.918 569.894 Z" fill="#3da44d" fill-rule="evenodd" fill-opacity="1" stroke="#000000" stroke-opacity="1" stroke-width="2.4"/>
<path clip-path="url(#clip362)" d="M1322.06 451.563 L1319.24 459.675 L1310.65 459.855 L1317.5 465.051 L1315 473.271 L1322.06 468.363 L1329.12 473.271 L1326.62 465.051 L1333.47 459.855 L1324.88 459.675 L1322.06 451.563 Z" fill="#3da44d" fill-rule="evenodd" fill-opacity="1" stroke="#000000" stroke-opacity="1" stroke-width="2.4"/>
<path clip-path="url(#clip362)" d="M1709.2 360.757 L1706.38 368.869 L1697.79 369.049 L1704.64 374.245 L1702.15 382.465 L1709.2 377.557 L1716.26 382.465 L1713.76 374.245 L1720.61 369.049 L1712.02 368.869 L1709.2 360.757 Z" fill="#3da44d" fill-rule="evenodd" fill-opacity="1" stroke="#000000" stroke-opacity="1" stroke-width="2.4"/>
<polyline clip-path="url(#clip362)" style="stroke:#c271d2; stroke-linecap:butt; stroke-linejoin:round; stroke-width:4; stroke-opacity:1; fill:none" points="
  257.42,596.618 547.776,740.249 934.918,721.619 1322.06,806.475 1709.2,306.35 
  "/>
<path clip-path="url(#clip362)" d="M257.42 584.618 L245.42 596.618 L257.42 608.618 L269.42 596.618 L257.42 584.618 Z" fill="#c271d2" fill-rule="evenodd" fill-opacity="1" stroke="#000000" stroke-opacity="1" stroke-width="2.4"/>
<path clip-path="url(#clip362)" d="M547.776 728.249 L535.776 740.249 L547.776 752.249 L559.776 740.249 L547.776 728.249 Z" fill="#c271d2" fill-rule="evenodd" fill-opacity="1" stroke="#000000" stroke-opacity="1" stroke-width="2.4"/>
<path clip-path="url(#clip362)" d="M934.918 709.619 L922.918 721.619 L934.918 733.619 L946.918 721.619 L934.918 709.619 Z" fill="#c271d2" fill-rule="evenodd" fill-opacity="1" stroke="#000000" stroke-opacity="1" stroke-width="2.4"/>
<path clip-path="url(#clip362)" d="M1322.06 794.475 L1310.06 806.475 L1322.06 818.475 L1334.06 806.475 L1322.06 794.475 Z" fill="#c271d2" fill-rule="evenodd" fill-opacity="1" stroke="#000000" stroke-opacity="1" stroke-width="2.4"/>
<path clip-path="url(#clip362)" d="M1709.2 294.35 L1697.2 306.35 L1709.2 318.35 L1721.2 306.35 L1709.2 294.35 Z" fill="#c271d2" fill-rule="evenodd" fill-opacity="1" stroke="#000000" stroke-opacity="1" stroke-width="2.4"/>
<polyline clip-path="url(#clip362)" style="stroke:#ac8d18; stroke-linecap:butt; stroke-linejoin:round; stroke-width:4; stroke-opacity:1; fill:none" points="
  257.42,969.566 547.776,903.7 934.918,828.35 1322.06,777.388 1709.2,728.83 
  "/>
<path clip-path="url(#clip362)" d="M257.42 981.566 L247.028 975.566 L247.028 963.566 L257.42 957.566 L267.812 963.566 L267.812 975.566 Z" fill="#ac8d18" fill-rule="evenodd" fill-opacity="1" stroke="#000000" stroke-opacity="1" stroke-width="2.4"/>
<path clip-path="url(#clip362)" d="M547.776 915.7 L537.384 909.7 L537.384 897.7 L547.776 891.7 L558.168 897.7 L558.168 909.7 Z" fill="#ac8d18" fill-rule="evenodd" fill-opacity="1" stroke="#000000" stroke-opacity="1" stroke-width="2.4"/>
<path clip-path="url(#clip362)" d="M934.918 840.35 L924.526 834.35 L924.526 822.35 L934.918 816.35 L945.31 822.35 L945.31 834.35 Z" fill="#ac8d18" fill-rule="evenodd" fill-opacity="1" stroke="#000000" stroke-opacity="1" stroke-width="2.4"/>
<path clip-path="url(#clip362)" d="M1322.06 789.388 L1311.67 783.388 L1311.67 771.388 L1322.06 765.388 L1332.45 771.388 L1332.45 783.388 Z" fill="#ac8d18" fill-rule="evenodd" fill-opacity="1" stroke="#000000" stroke-opacity="1" stroke-width="2.4"/>
<path clip-path="url(#clip362)" d="M1709.2 740.83 L1698.81 734.83 L1698.81 722.83 L1709.2 716.83 L1719.59 722.83 L1719.59 734.83 Z" fill="#ac8d18" fill-rule="evenodd" fill-opacity="1" stroke="#000000" stroke-opacity="1" stroke-width="2.4"/>
<polyline clip-path="url(#clip362)" style="stroke:#00a9ad; stroke-linecap:butt; stroke-linejoin:round; stroke-width:4; stroke-opacity:1; fill:none" stroke-dasharray="16, 10" points="
  257.42,999.446 547.776,906.837 934.918,816.391 1322.06,783.452 1709.2,768.434 
  "/>
<line clip-path="url(#clip362)" x1="257.42" y1="999.446" x2="257.42" y2="987.446" style="stroke:#00a9ad; stroke-width:2.4; stroke-opacity:1"/>
<line clip-path="url(#clip362)" x1="257.42" y1="999.446" x2="245.42" y2="999.446" style="stroke:#00a9ad; stroke-width:2.4; stroke-opacity:1"/>
<line clip-path="url(#clip362)" x1="257.42" y1="999.446" x2="257.42" y2="1011.45" style="stroke:#00a9ad; stroke-width:2.4; stroke-opacity:1"/>
<line clip-path="url(#clip362)" x1="257.42" y1="999.446" x2="269.42" y2="999.446" style="stroke:#00a9ad; stroke-width:2.4; stroke-opacity:1"/>
<line clip-path="url(#clip362)" x1="547.776" y1="906.837" x2="547.776" y2="894.837" style="stroke:#00a9ad; stroke-width:2.4; stroke-opacity:1"/>
<line clip-path="url(#clip362)" x1="547.776" y1="906.837" x2="535.776" y2="906.837" style="stroke:#00a9ad; stroke-width:2.4; stroke-opacity:1"/>
<line clip-path="url(#clip362)" x1="547.776" y1="906.837" x2="547.776" y2="918.837" style="stroke:#00a9ad; stroke-width:2.4; stroke-opacity:1"/>
<line clip-path="url(#clip362)" x1="547.776" y1="906.837" x2="559.776" y2="906.837" style="stroke:#00a9ad; stroke-width:2.4; stroke-opacity:1"/>
<line clip-path="url(#clip362)" x1="934.918" y1="816.391" x2="934.918" y2="804.391" style="stroke:#00a9ad; stroke-width:2.4; stroke-opacity:1"/>
<line clip-path="url(#clip362)" x1="934.918" y1="816.391" x2="922.918" y2="816.391" style="stroke:#00a9ad; stroke-width:2.4; stroke-opacity:1"/>
<line clip-path="url(#clip362)" x1="934.918" y1="816.391" x2="934.918" y2="828.391" style="stroke:#00a9ad; stroke-width:2.4; stroke-opacity:1"/>
<line clip-path="url(#clip362)" x1="934.918" y1="816.391" x2="946.918" y2="816.391" style="stroke:#00a9ad; stroke-width:2.4; stroke-opacity:1"/>
<line clip-path="url(#clip362)" x1="1322.06" y1="783.452" x2="1322.06" y2="771.452" style="stroke:#00a9ad; stroke-width:2.4; stroke-opacity:1"/>
<line clip-path="url(#clip362)" x1="1322.06" y1="783.452" x2="1310.06" y2="783.452" style="stroke:#00a9ad; stroke-width:2.4; stroke-opacity:1"/>
<line clip-path="url(#clip362)" x1="1322.06" y1="783.452" x2="1322.06" y2="795.452" style="stroke:#00a9ad; stroke-width:2.4; stroke-opacity:1"/>
<line clip-path="url(#clip362)" x1="1322.06" y1="783.452" x2="1334.06" y2="783.452" style="stroke:#00a9ad; stroke-width:2.4; stroke-opacity:1"/>
<line clip-path="url(#clip362)" x1="1709.2" y1="768.434" x2="1709.2" y2="756.434" style="stroke:#00a9ad; stroke-width:2.4; stroke-opacity:1"/>
<line clip-path="url(#clip362)" x1="1709.2" y1="768.434" x2="1697.2" y2="768.434" style="stroke:#00a9ad; stroke-width:2.4; stroke-opacity:1"/>
<line clip-path="url(#clip362)" x1="1709.2" y1="768.434" x2="1709.2" y2="780.434" style="stroke:#00a9ad; stroke-width:2.4; stroke-opacity:1"/>
<line clip-path="url(#clip362)" x1="1709.2" y1="768.434" x2="1721.2" y2="768.434" style="stroke:#00a9ad; stroke-width:2.4; stroke-opacity:1"/>
<path clip-path="url(#clip360)" d="
M265.163 442.789 L720.13 442.789 L720.13 79.9086 L265.163 79.9086  Z
  " fill="#ffffff" fill-rule="evenodd" fill-opacity="1"/>
<polyline clip-path="url(#clip360)" style="stroke:#000000; stroke-linecap:butt; stroke-linejoin:round; stroke-width:4; stroke-opacity:1; fill:none" points="
  265.163,442.789 720.13,442.789 720.13,79.9086 265.163,79.9086 265.163,442.789 
  "/>
<polyline clip-path="url(#clip360)" style="stroke:#009af9; stroke-linecap:butt; stroke-linejoin:round; stroke-width:4; stroke-opacity:1; fill:none" points="
  282.261,131.749 384.854,131.749 
  "/>
<circle clip-path="url(#clip360)" cx="333.558" cy="131.749" r="23" fill="#009af9" fill-rule="evenodd" fill-opacity="1" stroke="#000000" stroke-opacity="1" stroke-width="5.12"/>
<path clip-path="url(#clip360)" d="M401.953 114.469 L406.629 114.469 L406.629 128.635 L423.619 128.635 L423.619 114.469 L428.295 114.469 L428.295 149.029 L423.619 149.029 L423.619 132.57 L406.629 132.57 L406.629 149.029 L401.953 149.029 L401.953 114.469 Z" fill="#000000" fill-rule="evenodd" fill-opacity="1" /><path clip-path="url(#clip360)" d="M449.198 135.996 Q444.036 135.996 442.045 137.177 Q440.054 138.357 440.054 141.205 Q440.054 143.473 441.536 144.816 Q443.041 146.135 445.61 146.135 Q449.152 146.135 451.281 143.635 Q453.434 141.112 453.434 136.945 L453.434 135.996 L449.198 135.996 M457.693 134.237 L457.693 149.029 L453.434 149.029 L453.434 145.093 Q451.976 147.455 449.8 148.589 Q447.624 149.7 444.476 149.7 Q440.494 149.7 438.133 147.478 Q435.795 145.232 435.795 141.482 Q435.795 137.107 438.712 134.885 Q441.652 132.663 447.462 132.663 L453.434 132.663 L453.434 132.246 Q453.434 129.307 451.49 127.709 Q449.568 126.089 446.073 126.089 Q443.851 126.089 441.744 126.621 Q439.638 127.154 437.693 128.219 L437.693 124.283 Q440.031 123.381 442.23 122.941 Q444.429 122.478 446.513 122.478 Q452.138 122.478 454.915 125.394 Q457.693 128.311 457.693 134.237 Z" fill="#000000" fill-rule="evenodd" fill-opacity="1" /><path clip-path="url(#clip360)" d="M488.017 133.381 L488.017 149.029 L483.758 149.029 L483.758 133.519 Q483.758 129.839 482.323 128.01 Q480.888 126.182 478.017 126.182 Q474.568 126.182 472.577 128.381 Q470.587 130.58 470.587 134.376 L470.587 149.029 L466.304 149.029 L466.304 123.103 L470.587 123.103 L470.587 127.131 Q472.114 124.793 474.175 123.635 Q476.258 122.478 478.966 122.478 Q483.434 122.478 485.725 125.256 Q488.017 128.01 488.017 133.381 Z" fill="#000000" fill-rule="evenodd" fill-opacity="1" /><path clip-path="url(#clip360)" d="M513.573 127.038 L513.573 113.01 L517.832 113.01 L517.832 149.029 L513.573 149.029 L513.573 145.14 Q512.23 147.455 510.17 148.589 Q508.133 149.7 505.262 149.7 Q500.563 149.7 497.6 145.95 Q494.661 142.2 494.661 136.089 Q494.661 129.978 497.6 126.228 Q500.563 122.478 505.262 122.478 Q508.133 122.478 510.17 123.612 Q512.23 124.723 513.573 127.038 M499.059 136.089 Q499.059 140.788 500.98 143.473 Q502.924 146.135 506.304 146.135 Q509.684 146.135 511.628 143.473 Q513.573 140.788 513.573 136.089 Q513.573 131.39 511.628 128.728 Q509.684 126.043 506.304 126.043 Q502.924 126.043 500.98 128.728 Q499.059 131.39 499.059 136.089 Z" fill="#000000" fill-rule="evenodd" fill-opacity="1" /><path clip-path="url(#clip360)" d="M524.128 123.103 L528.387 123.103 L533.711 143.334 L539.012 123.103 L544.035 123.103 L549.359 143.334 L554.66 123.103 L558.92 123.103 L552.137 149.029 L547.114 149.029 L541.535 127.779 L535.934 149.029 L530.91 149.029 L524.128 123.103 Z" fill="#000000" fill-rule="evenodd" fill-opacity="1" /><path clip-path="url(#clip360)" d="M580.401 127.084 Q579.683 126.668 578.827 126.482 Q577.994 126.274 576.975 126.274 Q573.364 126.274 571.419 128.635 Q569.498 130.973 569.498 135.371 L569.498 149.029 L565.216 149.029 L565.216 123.103 L569.498 123.103 L569.498 127.131 Q570.841 124.769 572.994 123.635 Q575.146 122.478 578.225 122.478 Q578.665 122.478 579.197 122.547 Q579.73 122.594 580.378 122.709 L580.401 127.084 Z" fill="#000000" fill-rule="evenodd" fill-opacity="1" /><path clip-path="url(#clip360)" d="M584.868 123.103 L589.128 123.103 L589.128 149.029 L584.868 149.029 L584.868 123.103 M584.868 113.01 L589.128 113.01 L589.128 118.404 L584.868 118.404 L584.868 113.01 Z" fill="#000000" fill-rule="evenodd" fill-opacity="1" /><path clip-path="url(#clip360)" d="M602.253 115.742 L602.253 123.103 L611.026 123.103 L611.026 126.413 L602.253 126.413 L602.253 140.487 Q602.253 143.658 603.109 144.561 Q603.989 145.464 606.651 145.464 L611.026 145.464 L611.026 149.029 L606.651 149.029 Q601.72 149.029 599.845 147.2 Q597.97 145.348 597.97 140.487 L597.97 126.413 L594.845 126.413 L594.845 123.103 L597.97 123.103 L597.97 115.742 L602.253 115.742 Z" fill="#000000" fill-rule="evenodd" fill-opacity="1" /><path clip-path="url(#clip360)" d="M620.84 115.742 L620.84 123.103 L629.614 123.103 L629.614 126.413 L620.84 126.413 L620.84 140.487 Q620.84 143.658 621.697 144.561 Q622.577 145.464 625.239 145.464 L629.614 145.464 L629.614 149.029 L625.239 149.029 Q620.308 149.029 618.433 147.2 Q616.558 145.348 616.558 140.487 L616.558 126.413 L613.433 126.413 L613.433 123.103 L616.558 123.103 L616.558 115.742 L620.84 115.742 Z" fill="#000000" fill-rule="evenodd" fill-opacity="1" /><path clip-path="url(#clip360)" d="M657.391 135.001 L657.391 137.084 L637.808 137.084 Q638.086 141.482 640.447 143.797 Q642.831 146.089 647.067 146.089 Q649.521 146.089 651.813 145.487 Q654.127 144.885 656.396 143.681 L656.396 147.709 Q654.104 148.681 651.697 149.191 Q649.289 149.7 646.813 149.7 Q640.609 149.7 636.975 146.089 Q633.364 142.478 633.364 136.32 Q633.364 129.955 636.789 126.228 Q640.239 122.478 646.072 122.478 Q651.303 122.478 654.336 125.857 Q657.391 129.214 657.391 135.001 M653.132 133.751 Q653.086 130.256 651.164 128.172 Q649.266 126.089 646.118 126.089 Q642.553 126.089 640.401 128.103 Q638.271 130.117 637.947 133.774 L653.132 133.751 Z" fill="#000000" fill-rule="evenodd" fill-opacity="1" /><path clip-path="url(#clip360)" d="M685.933 133.381 L685.933 149.029 L681.674 149.029 L681.674 133.519 Q681.674 129.839 680.238 128.01 Q678.803 126.182 675.933 126.182 Q672.484 126.182 670.493 128.381 Q668.502 130.58 668.502 134.376 L668.502 149.029 L664.22 149.029 L664.22 123.103 L668.502 123.103 L668.502 127.131 Q670.03 124.793 672.09 123.635 Q674.174 122.478 676.882 122.478 Q681.349 122.478 683.641 125.256 Q685.933 128.01 685.933 133.381 Z" fill="#000000" fill-rule="evenodd" fill-opacity="1" /><polyline clip-path="url(#clip360)" style="stroke:#e26f46; stroke-linecap:butt; stroke-linejoin:round; stroke-width:4; stroke-opacity:1; fill:none" points="
  282.261,183.589 384.854,183.589 
  "/>
<path clip-path="url(#clip360)" d="M307.958 157.989 L307.958 209.189 L359.158 209.189 L359.158 157.989 L307.958 157.989 Z" fill="#e26f46" fill-rule="evenodd" fill-opacity="1" stroke="#000000" stroke-opacity="1" stroke-width="5.12"/>
<path clip-path="url(#clip360)" d="M401.953 166.309 L421.814 166.309 L421.814 170.244 L406.629 170.244 L406.629 180.429 L420.332 180.429 L420.332 184.364 L406.629 184.364 L406.629 200.869 L401.953 200.869 L401.953 166.309 Z" fill="#000000" fill-rule="evenodd" fill-opacity="1" /><path clip-path="url(#clip360)" d="M425.587 174.943 L429.846 174.943 L429.846 200.869 L425.587 200.869 L425.587 174.943 M425.587 164.85 L429.846 164.85 L429.846 170.244 L425.587 170.244 L425.587 164.85 Z" fill="#000000" fill-rule="evenodd" fill-opacity="1" /><path clip-path="url(#clip360)" d="M442.971 167.582 L442.971 174.943 L451.744 174.943 L451.744 178.253 L442.971 178.253 L442.971 192.327 Q442.971 195.498 443.828 196.401 Q444.707 197.304 447.369 197.304 L451.744 197.304 L451.744 200.869 L447.369 200.869 Q442.439 200.869 440.564 199.04 Q438.689 197.188 438.689 192.327 L438.689 178.253 L435.564 178.253 L435.564 174.943 L438.689 174.943 L438.689 167.582 L442.971 167.582 Z" fill="#000000" fill-rule="evenodd" fill-opacity="1" /><path clip-path="url(#clip360)" d="M452.74 166.309 L481.975 166.309 L481.975 170.244 L469.707 170.244 L469.707 200.869 L465.008 200.869 L465.008 170.244 L452.74 170.244 L452.74 166.309 Z" fill="#000000" fill-rule="evenodd" fill-opacity="1" /><path clip-path="url(#clip360)" d="M495.401 200.869 L482.207 166.309 L487.091 166.309 L498.04 195.406 L509.012 166.309 L513.873 166.309 L500.702 200.869 L495.401 200.869 Z" fill="#000000" fill-rule="evenodd" fill-opacity="1" /><polyline clip-path="url(#clip360)" style="stroke:#3da44d; stroke-linecap:butt; stroke-linejoin:round; stroke-width:4; stroke-opacity:1; fill:none" points="
  282.261,235.429 384.854,235.429 
  "/>
<path clip-path="url(#clip360)" d="M333.558 209.829 L327.542 227.134 L309.212 227.518 L323.83 238.603 L318.505 256.139 L333.558 245.669 L348.61 256.139 L343.286 238.603 L357.903 227.518 L339.574 227.134 L333.558 209.829 Z" fill="#3da44d" fill-rule="evenodd" fill-opacity="1" stroke="#000000" stroke-opacity="1" stroke-width="5.12"/>
<path clip-path="url(#clip360)" d="M401.953 218.149 L421.814 218.149 L421.814 222.084 L406.629 222.084 L406.629 232.269 L420.332 232.269 L420.332 236.204 L406.629 236.204 L406.629 252.709 L401.953 252.709 L401.953 218.149 Z" fill="#000000" fill-rule="evenodd" fill-opacity="1" /><path clip-path="url(#clip360)" d="M425.587 226.783 L429.846 226.783 L429.846 252.709 L425.587 252.709 L425.587 226.783 M425.587 216.69 L429.846 216.69 L429.846 222.084 L425.587 222.084 L425.587 216.69 Z" fill="#000000" fill-rule="evenodd" fill-opacity="1" /><path clip-path="url(#clip360)" d="M442.971 219.422 L442.971 226.783 L451.744 226.783 L451.744 230.093 L442.971 230.093 L442.971 244.167 Q442.971 247.338 443.828 248.241 Q444.707 249.144 447.369 249.144 L451.744 249.144 L451.744 252.709 L447.369 252.709 Q442.439 252.709 440.564 250.88 Q438.689 249.028 438.689 244.167 L438.689 230.093 L435.564 230.093 L435.564 226.783 L438.689 226.783 L438.689 219.422 L442.971 219.422 Z" fill="#000000" fill-rule="evenodd" fill-opacity="1" /><path clip-path="url(#clip360)" d="M457.531 218.149 L462.207 218.149 L462.207 232.315 L479.198 232.315 L479.198 218.149 L483.874 218.149 L483.874 252.709 L479.198 252.709 L479.198 236.25 L462.207 236.25 L462.207 252.709 L457.531 252.709 L457.531 218.149 Z" fill="#000000" fill-rule="evenodd" fill-opacity="1" /><path clip-path="url(#clip360)" d="M504.776 239.676 Q499.614 239.676 497.624 240.857 Q495.633 242.037 495.633 244.885 Q495.633 247.153 497.114 248.496 Q498.619 249.815 501.188 249.815 Q504.73 249.815 506.86 247.315 Q509.012 244.792 509.012 240.625 L509.012 239.676 L504.776 239.676 M513.272 237.917 L513.272 252.709 L509.012 252.709 L509.012 248.773 Q507.554 251.135 505.378 252.269 Q503.202 253.38 500.054 253.38 Q496.073 253.38 493.712 251.158 Q491.374 248.912 491.374 245.162 Q491.374 240.787 494.29 238.565 Q497.23 236.343 503.04 236.343 L509.012 236.343 L509.012 235.926 Q509.012 232.987 507.068 231.389 Q505.147 229.769 501.651 229.769 Q499.429 229.769 497.323 230.301 Q495.216 230.834 493.272 231.899 L493.272 227.963 Q495.61 227.061 497.809 226.621 Q500.008 226.158 502.091 226.158 Q507.716 226.158 510.494 229.074 Q513.272 231.991 513.272 237.917 Z" fill="#000000" fill-rule="evenodd" fill-opacity="1" /><path clip-path="url(#clip360)" d="M543.596 237.061 L543.596 252.709 L539.336 252.709 L539.336 237.199 Q539.336 233.519 537.901 231.69 Q536.466 229.862 533.596 229.862 Q530.147 229.862 528.156 232.061 Q526.165 234.26 526.165 238.056 L526.165 252.709 L521.883 252.709 L521.883 226.783 L526.165 226.783 L526.165 230.811 Q527.693 228.473 529.753 227.315 Q531.836 226.158 534.545 226.158 Q539.012 226.158 541.304 228.936 Q543.596 231.69 543.596 237.061 Z" fill="#000000" fill-rule="evenodd" fill-opacity="1" /><path clip-path="url(#clip360)" d="M569.151 230.718 L569.151 216.69 L573.41 216.69 L573.41 252.709 L569.151 252.709 L569.151 248.82 Q567.808 251.135 565.748 252.269 Q563.711 253.38 560.841 253.38 Q556.142 253.38 553.179 249.63 Q550.239 245.88 550.239 239.769 Q550.239 233.658 553.179 229.908 Q556.142 226.158 560.841 226.158 Q563.711 226.158 565.748 227.292 Q567.808 228.403 569.151 230.718 M554.637 239.769 Q554.637 244.468 556.558 247.153 Q558.503 249.815 561.882 249.815 Q565.262 249.815 567.207 247.153 Q569.151 244.468 569.151 239.769 Q569.151 235.07 567.207 232.408 Q565.262 229.723 561.882 229.723 Q558.503 229.723 556.558 232.408 Q554.637 235.07 554.637 239.769 Z" fill="#000000" fill-rule="evenodd" fill-opacity="1" /><polyline clip-path="url(#clip360)" style="stroke:#c271d2; stroke-linecap:butt; stroke-linejoin:round; stroke-width:4; stroke-opacity:1; fill:none" points="
  282.261,287.269 384.854,287.269 
  "/>
<path clip-path="url(#clip360)" d="M333.558 261.669 L307.958 287.269 L333.558 312.869 L359.158 287.269 L333.558 261.669 Z" fill="#c271d2" fill-rule="evenodd" fill-opacity="1" stroke="#000000" stroke-opacity="1" stroke-width="5.12"/>
<path clip-path="url(#clip360)" d="M424.198 271.123 L424.198 275.683 Q421.536 274.41 419.175 273.785 Q416.814 273.16 414.615 273.16 Q410.795 273.16 408.712 274.641 Q406.652 276.123 406.652 278.854 Q406.652 281.146 408.018 282.327 Q409.406 283.484 413.249 284.202 L416.073 284.78 Q421.305 285.776 423.781 288.299 Q426.281 290.799 426.281 295.012 Q426.281 300.035 422.902 302.627 Q419.545 305.22 413.041 305.22 Q410.587 305.22 407.809 304.664 Q405.055 304.109 402.092 303.021 L402.092 298.206 Q404.939 299.803 407.67 300.613 Q410.402 301.424 413.041 301.424 Q417.045 301.424 419.221 299.85 Q421.397 298.276 421.397 295.359 Q421.397 292.813 419.823 291.377 Q418.272 289.942 414.707 289.225 L411.86 288.669 Q406.629 287.627 404.291 285.405 Q401.953 283.183 401.953 279.225 Q401.953 274.641 405.17 272.002 Q408.411 269.364 414.082 269.364 Q416.513 269.364 419.036 269.803 Q421.559 270.243 424.198 271.123 Z" fill="#000000" fill-rule="evenodd" fill-opacity="1" /><path clip-path="url(#clip360)" d="M442.485 304.549 L429.291 269.989 L434.175 269.989 L445.124 299.086 L456.096 269.989 L460.957 269.989 L447.786 304.549 L442.485 304.549 Z" fill="#000000" fill-rule="evenodd" fill-opacity="1" /><path clip-path="url(#clip360)" d="M466.003 269.989 L470.679 269.989 L470.679 304.549 L466.003 304.549 L466.003 269.989 Z" fill="#000000" fill-rule="evenodd" fill-opacity="1" /><polyline clip-path="url(#clip360)" style="stroke:#ac8d18; stroke-linecap:butt; stroke-linejoin:round; stroke-width:4; stroke-opacity:1; fill:none" points="
  282.261,339.109 384.854,339.109 
  "/>
<path clip-path="url(#clip360)" d="M333.558 364.709 L311.388 351.909 L311.388 326.309 L333.558 313.509 L355.727 326.309 L355.727 351.909 Z" fill="#ac8d18" fill-rule="evenodd" fill-opacity="1" stroke="#000000" stroke-opacity="1" stroke-width="5.12"/>
<path clip-path="url(#clip360)" d="M424.198 322.963 L424.198 327.523 Q421.536 326.25 419.175 325.625 Q416.814 325 414.615 325 Q410.795 325 408.712 326.481 Q406.652 327.963 406.652 330.694 Q406.652 332.986 408.018 334.167 Q409.406 335.324 413.249 336.042 L416.073 336.62 Q421.305 337.616 423.781 340.139 Q426.281 342.639 426.281 346.852 Q426.281 351.875 422.902 354.467 Q419.545 357.06 413.041 357.06 Q410.587 357.06 407.809 356.504 Q405.055 355.949 402.092 354.861 L402.092 350.046 Q404.939 351.643 407.67 352.453 Q410.402 353.264 413.041 353.264 Q417.045 353.264 419.221 351.69 Q421.397 350.116 421.397 347.199 Q421.397 344.653 419.823 343.217 Q418.272 341.782 414.707 341.065 L411.86 340.509 Q406.629 339.467 404.291 337.245 Q401.953 335.023 401.953 331.065 Q401.953 326.481 405.17 323.842 Q408.411 321.204 414.082 321.204 Q416.513 321.204 419.036 321.643 Q421.559 322.083 424.198 322.963 Z" fill="#000000" fill-rule="evenodd" fill-opacity="1" /><path clip-path="url(#clip360)" d="M428.781 321.829 L458.017 321.829 L458.017 325.764 L445.749 325.764 L445.749 356.389 L441.05 356.389 L441.05 325.764 L428.781 325.764 L428.781 321.829 Z" fill="#000000" fill-rule="evenodd" fill-opacity="1" /><path clip-path="url(#clip360)" d="M462.531 321.829 L484.383 321.829 L484.383 325.764 L467.207 325.764 L467.207 335.995 L483.665 335.995 L483.665 339.93 L467.207 339.93 L467.207 352.453 L484.8 352.453 L484.8 356.389 L462.531 356.389 L462.531 321.829 Z" fill="#000000" fill-rule="evenodd" fill-opacity="1" /><path clip-path="url(#clip360)" d="M504.036 326.435 L497.693 343.634 L510.401 343.634 L504.036 326.435 M501.397 321.829 L506.698 321.829 L519.869 356.389 L515.008 356.389 L511.86 347.523 L496.281 347.523 L493.133 356.389 L488.202 356.389 L501.397 321.829 Z" fill="#000000" fill-rule="evenodd" fill-opacity="1" /><path clip-path="url(#clip360)" d="M529.591 325.671 L529.591 352.546 L535.239 352.546 Q542.392 352.546 545.702 349.305 Q549.035 346.065 549.035 339.074 Q549.035 332.129 545.702 328.912 Q542.392 325.671 535.239 325.671 L529.591 325.671 M524.915 321.829 L534.522 321.829 Q544.568 321.829 549.267 326.018 Q553.966 330.185 553.966 339.074 Q553.966 348.009 549.244 352.199 Q544.521 356.389 534.522 356.389 L524.915 356.389 L524.915 321.829 Z" fill="#000000" fill-rule="evenodd" fill-opacity="1" /><path clip-path="url(#clip360)" d="M554.082 321.829 L559.105 321.829 L568.688 336.042 L578.202 321.829 L583.225 321.829 L571.003 339.93 L571.003 356.389 L566.304 356.389 L566.304 339.93 L554.082 321.829 Z" fill="#000000" fill-rule="evenodd" fill-opacity="1" /><polyline clip-path="url(#clip360)" style="stroke:#00a9ad; stroke-linecap:butt; stroke-linejoin:round; stroke-width:4; stroke-opacity:1; fill:none" stroke-dasharray="16, 10" points="
  282.261,390.949 384.854,390.949 
  "/>
<line clip-path="url(#clip360)" x1="333.558" y1="390.949" x2="333.558" y2="365.349" style="stroke:#00a9ad; stroke-width:2.4; stroke-opacity:1"/>
<line clip-path="url(#clip360)" x1="333.558" y1="390.949" x2="307.958" y2="390.949" style="stroke:#00a9ad; stroke-width:2.4; stroke-opacity:1"/>
<line clip-path="url(#clip360)" x1="333.558" y1="390.949" x2="333.558" y2="416.549" style="stroke:#00a9ad; stroke-width:2.4; stroke-opacity:1"/>
<line clip-path="url(#clip360)" x1="333.558" y1="390.949" x2="359.158" y2="390.949" style="stroke:#00a9ad; stroke-width:2.4; stroke-opacity:1"/>
<path clip-path="url(#clip360)" d="M401.953 373.669 L421.814 373.669 L421.814 377.604 L406.629 377.604 L406.629 387.789 L420.332 387.789 L420.332 391.724 L406.629 391.724 L406.629 408.229 L401.953 408.229 L401.953 373.669 Z" fill="#000000" fill-rule="evenodd" fill-opacity="1" /><path clip-path="url(#clip360)" d="M425.587 382.303 L429.846 382.303 L429.846 408.229 L425.587 408.229 L425.587 382.303 M425.587 372.21 L429.846 372.21 L429.846 377.604 L425.587 377.604 L425.587 372.21 Z" fill="#000000" fill-rule="evenodd" fill-opacity="1" /><path clip-path="url(#clip360)" d="M442.971 374.942 L442.971 382.303 L451.744 382.303 L451.744 385.613 L442.971 385.613 L442.971 399.687 Q442.971 402.858 443.828 403.761 Q444.707 404.664 447.369 404.664 L451.744 404.664 L451.744 408.229 L447.369 408.229 Q442.439 408.229 440.564 406.4 Q438.689 404.548 438.689 399.687 L438.689 385.613 L435.564 385.613 L435.564 382.303 L438.689 382.303 L438.689 374.942 L442.971 374.942 Z" fill="#000000" fill-rule="evenodd" fill-opacity="1" /><path clip-path="url(#clip360)" d="M452.74 373.669 L481.975 373.669 L481.975 377.604 L469.707 377.604 L469.707 408.229 L465.008 408.229 L465.008 377.604 L452.74 377.604 L452.74 373.669 Z" fill="#000000" fill-rule="evenodd" fill-opacity="1" /><path clip-path="url(#clip360)" d="M494.36 386.284 Q493.642 385.868 492.786 385.682 Q491.952 385.474 490.934 385.474 Q487.323 385.474 485.378 387.835 Q483.457 390.173 483.457 394.571 L483.457 408.229 L479.175 408.229 L479.175 382.303 L483.457 382.303 L483.457 386.331 Q484.8 383.969 486.952 382.835 Q489.105 381.678 492.184 381.678 Q492.624 381.678 493.156 381.747 Q493.688 381.794 494.337 381.909 L494.36 386.284 Z" fill="#000000" fill-rule="evenodd" fill-opacity="1" /><path clip-path="url(#clip360)" d="M498.387 397.997 L498.387 382.303 L502.647 382.303 L502.647 397.835 Q502.647 401.516 504.082 403.368 Q505.517 405.196 508.387 405.196 Q511.836 405.196 513.827 402.997 Q515.841 400.798 515.841 397.002 L515.841 382.303 L520.1 382.303 L520.1 408.229 L515.841 408.229 L515.841 404.247 Q514.29 406.608 512.23 407.766 Q510.193 408.9 507.485 408.9 Q503.017 408.9 500.702 406.122 Q498.387 403.344 498.387 397.997 M509.105 381.678 L509.105 381.678 Z" fill="#000000" fill-rule="evenodd" fill-opacity="1" /><path clip-path="url(#clip360)" d="M533.086 374.942 L533.086 382.303 L541.859 382.303 L541.859 385.613 L533.086 385.613 L533.086 399.687 Q533.086 402.858 533.943 403.761 Q534.822 404.664 537.484 404.664 L541.859 404.664 L541.859 408.229 L537.484 408.229 Q532.554 408.229 530.679 406.4 Q528.804 404.548 528.804 399.687 L528.804 385.613 L525.679 385.613 L525.679 382.303 L528.804 382.303 L528.804 374.942 L533.086 374.942 Z" fill="#000000" fill-rule="evenodd" fill-opacity="1" /><path clip-path="url(#clip360)" d="M569.012 392.581 L569.012 408.229 L564.753 408.229 L564.753 392.719 Q564.753 389.039 563.318 387.21 Q561.882 385.382 559.012 385.382 Q555.563 385.382 553.572 387.581 Q551.582 389.78 551.582 393.576 L551.582 408.229 L547.299 408.229 L547.299 372.21 L551.582 372.21 L551.582 386.331 Q553.109 383.993 555.17 382.835 Q557.253 381.678 559.961 381.678 Q564.429 381.678 566.72 384.456 Q569.012 387.21 569.012 392.581 Z" fill="#000000" fill-rule="evenodd" fill-opacity="1" /></svg>
